<?xml version="1.0" encoding="UTF-8" standalone="no"?>
<!-- Created with Inkscape (http://www.inkscape.org/) -->

<svg
   xmlns:dc="http://purl.org/dc/elements/1.1/"
   xmlns:cc="http://creativecommons.org/ns#"
   xmlns:rdf="http://www.w3.org/1999/02/22-rdf-syntax-ns#"
   xmlns:svg="http://www.w3.org/2000/svg"
   xmlns="http://www.w3.org/2000/svg"
   xmlns:sodipodi="http://sodipodi.sourceforge.net/DTD/sodipodi-0.dtd"
   xmlns:inkscape="http://www.inkscape.org/namespaces/inkscape"
   width="162.08983mm"
   height="36.532902mm"
   viewBox="0 0 162.08983 36.532902"
   version="1.1"
   id="svg93"
   inkscape:version="0.92.4 (5da689c313, 2019-01-14)"
   sodipodi:docname="kontribui.svg">
  <defs
     id="defs87" />
  <sodipodi:namedview
     id="base"
     pagecolor="#ffffff"
     bordercolor="#666666"
     borderopacity="1.0"
     inkscape:pageopacity="0.0"
     inkscape:pageshadow="2"
     inkscape:zoom="0.35"
     inkscape:cx="386.31148"
     inkscape:cy="-79.343895"
     inkscape:document-units="mm"
     inkscape:current-layer="layer1"
     showgrid="false"
     fit-margin-top="-0.1"
     fit-margin-left="0"
     fit-margin-right="0"
     fit-margin-bottom="0"
     inkscape:window-width="1366"
     inkscape:window-height="704"
     inkscape:window-x="0"
     inkscape:window-y="27"
     inkscape:window-maximized="1" />
  <metadata
     id="metadata90">
    <rdf:RDF>
      <cc:Work
         rdf:about="">
        <dc:format>image/svg+xml</dc:format>
        <dc:type
           rdf:resource="http://purl.org/dc/dcmitype/StillImage" />
        <dc:title></dc:title>
      </cc:Work>
    </rdf:RDF>
  </metadata>
  <g
     inkscape:label="Camada 1"
     inkscape:groupmode="layer"
     id="layer1"
     transform="translate(-3.6217537,-91.307358)">
    <g
       transform="matrix(0.26458333,0,0,0.26458333,-10.348795,-34.810094)"
       style="font-style:normal;font-weight:normal;font-size:48px;line-height:1.25;font-family:sans-serif;letter-spacing:0px;word-spacing:0px;fill:#000000;fill-opacity:1;stroke:none"
       id="g64">
      <path
         inkscape:export-ydpi="96"
         inkscape:export-xdpi="96"
         inkscape:connector-curvature="0"
         d="m 61.355686,476.71484 c -1.494457,0 -2.24188,0.96086 -2.24188,2.88086 0,1.792 -0.04627,3.71177 -0.139672,5.75977 -0.0934,1.92 -0.233634,4.99084 -0.420441,9.21484 -0.186807,4.096 -0.513538,9.72849 -0.980556,16.89649 -0.373614,7.168 -0.886844,16.89559 -1.54067,29.18359 -0.373609,6.144 -0.748038,12.16083 -1.121652,18.04883 -0.280211,5.888 -0.560673,11.32831 -0.840884,16.32031 -0.28021,4.864 -0.512978,9.15128 -0.699785,12.86328 -0.0934,3.584 -0.139672,6.27246 -0.139672,8.06446 0,5.632 1.072727,9.91928 3.22101,12.86328 2.241687,2.816 6.025069,4.22461 11.349074,4.22461 h 7.706196 c 0.840633,0 1.400131,-0.19218 1.680342,-0.57618 0.280211,-0.512 0.468135,-1.28068 0.561539,-2.30468 l 2.392954,-44.55469 c 9.49e-4,-0.0386 0.0013,-0.0763 0.0072,-0.11914 l 0.173877,-3.24219 v -1.39453 c 0,-1.04629 0.08382,-1.97672 0.22091,-2.81641 0.573929,-10.75117 2.073674,-42.54485 2.249007,-48.67187 0.280206,-6.656 0.420441,-11.45639 0.420441,-14.40039 0,-2.944 -0.187925,-5.50369 -0.561539,-7.67969 -0.373614,-2.304 -1.073343,-4.22377 -2.100783,-5.75977 -1.027439,-1.53593 -2.476016,-2.68903 -4.344088,-3.45703 -1.774669,-0.896 -4.155743,-1.34375 -7.144658,-1.34375 z m 32.78305,51.30274 c -0.0015,0.003 -0.0029,0.01 -0.0044,0.0117 v 0.006 c 0.0015,-0.007 0.0029,-0.0107 0.0044,-0.0176 z m -9.547591,21.32617 c -0.01227,-0.0625 -0.01085,0.24933 0.01283,0.19336 0.01015,-0.024 0.0031,-0.0552 0.0072,-0.082 -0.0069,-0.037 -0.0127,-0.0744 -0.01995,-0.11133 z"
         style="font-style:normal;font-variant:normal;font-weight:normal;font-stretch:normal;font-size:192px;font-family:'Poetsen One';-inkscape-font-specification:'Poetsen One';opacity:1;fill:#2b2200;fill-opacity:1;stroke:#000009;stroke-width:0.8567993;stroke-linejoin:round;stroke-miterlimit:4;stroke-dasharray:none;stroke-opacity:1"
         id="path27" />
      <path
         inkscape:export-ydpi="96"
         inkscape:export-xdpi="96"
         sodipodi:nodetypes="ccccccc"
         style="opacity:1;fill:#008000;fill-opacity:1;stroke:#000009;stroke-width:0.46671227;stroke-linejoin:round;stroke-miterlimit:4;stroke-dasharray:none;stroke-opacity:1"
         id="path2"
         d="m 122.46524,542.9411 -41.753128,2.52262 24.110358,-30.5038 1.27776,10.4582 c 20.08102,-11.73308 17.08086,-5.24293 45.58356,-37.52013 -8.89053,34.01118 -21.39754,35.39725 -38.60422,48.94471 z"
         inkscape:connector-curvature="0" />
      <path
         inkscape:export-ydpi="96"
         inkscape:export-xdpi="96"
         sodipodi:nodetypes="ccccccc"
         style="font-style:normal;font-weight:normal;font-size:48px;line-height:1.25;font-family:sans-serif;letter-spacing:0px;word-spacing:0px;opacity:1;fill:#000080;fill-opacity:1;stroke:#000009;stroke-width:0.46671227;stroke-linejoin:round;stroke-miterlimit:4;stroke-dasharray:none;stroke-opacity:1"
         id="path2-3"
         d="m 123.96017,555.86637 -41.753134,-2.52262 24.110364,30.5038 1.27776,-10.4582 c 20.08102,11.73308 17.08086,5.24293 45.58356,37.52013 -8.89053,-34.01118 -21.39754,-35.39725 -38.60422,-48.94471 z"
         inkscape:connector-curvature="0" />
      <g
         inkscape:export-ydpi="96"
         inkscape:export-xdpi="96"
         id="flowRoot3923"
         style="font-style:normal;font-variant:normal;font-weight:normal;font-stretch:normal;font-size:133.33332825px;line-height:1.25;font-family:'Poetsen One';-inkscape-font-specification:'Poetsen One, Normal';font-variant-ligatures:normal;font-variant-caps:normal;font-variant-numeric:normal;font-feature-settings:normal;text-align:start;letter-spacing:0px;word-spacing:0px;writing-mode:lr-tb;text-anchor:start;opacity:1;fill:#2b2200;fill-opacity:1;stroke:#000009;stroke-width:1.003003;stroke-linejoin:round;stroke-miterlimit:4;stroke-dasharray:none;stroke-opacity:1"
         transform="translate(-17.999995,29.999996)"
         aria-label="ontribui">
        <path
           inkscape:connector-curvature="0"
           id="path3960"
           style="font-style:normal;font-variant:normal;font-weight:normal;font-stretch:normal;font-size:133.33332825px;font-family:'Poetsen One';-inkscape-font-specification:'Poetsen One, Normal';font-variant-ligatures:normal;font-variant-caps:normal;font-variant-numeric:normal;font-feature-settings:normal;text-align:start;writing-mode:lr-tb;text-anchor:start;fill:#2b2200;fill-opacity:1;stroke:#000009;stroke-width:1.003003;stroke-linejoin:round;stroke-miterlimit:4;stroke-dasharray:none;stroke-opacity:1"
           d="m 206.76107,584.24001 q -9.2,0 -15.33334,-2.53333 -6,-2.66667 -9.6,-7.2 -3.6,-4.53333 -5.06666,-10.53333 -1.46667,-6.13334 -1.46667,-13.06667 0,-8 1.86667,-15.6 2,-7.73333 6.66666,-13.73333 4.66667,-6 12.26667,-9.6 7.73333,-3.73333 19.2,-3.73333 16.8,0 24,8.26666 7.33333,8.13333 7.33333,22.93333 0,4.13334 -0.66667,9.2 -0.53333,4.93334 -2.26666,9.86667 -1.6,4.93333 -4.53333,9.6 -2.8,4.66667 -7.2,8.26667 -4.4,3.6 -10.66667,5.73333 -6.13333,2.13333 -14.53333,2.13333 z m 6.26666,-58.26666 q -5.06666,0 -8.13333,2.66666 -2.93333,2.53334 -4.53333,6.26667 -1.46667,3.6 -2,7.73333 -0.4,4 -0.4,6.8 0,8.8 2.8,12.93334 2.8,4.13333 8,4.13333 4.66666,0 7.6,-2.93333 3.06666,-2.93334 4.66666,-7.06667 1.73334,-4.13333 2.26667,-8.66667 0.66667,-4.53333 0.66667,-7.6 0,-6.66666 -2.53334,-10.4 -2.4,-3.86666 -8.4,-3.86666 z" />
        <path
           inkscape:connector-curvature="0"
           id="path3962"
           style="font-style:normal;font-variant:normal;font-weight:normal;font-stretch:normal;font-size:133.33332825px;font-family:'Poetsen One';-inkscape-font-specification:'Poetsen One, Normal';font-variant-ligatures:normal;font-variant-caps:normal;font-variant-numeric:normal;font-feature-settings:normal;text-align:start;writing-mode:lr-tb;text-anchor:start;fill:#2b2200;fill-opacity:1;stroke:#000009;stroke-width:1.003003;stroke-linejoin:round;stroke-miterlimit:4;stroke-dasharray:none;stroke-opacity:1"
           d="m 302.04857,571.17335 q 0,-2.93334 0.4,-7.6 0.53333,-4.8 0.93333,-10 0.53333,-5.33334 0.93333,-10.26667 0.53334,-4.93333 0.53334,-8.26667 0,-3.46666 -1.73334,-6.13333 -1.6,-2.8 -6.4,-2.8 -4.66666,0 -7.73333,2.26667 -3.06667,2.26666 -5.2,8.26666 -2,6 -3.33333,16.53334 -1.33334,10.53333 -2.53334,27.06666 -0.13333,1.6 -0.66666,2.13334 -0.53334,0.53333 -2.26667,0.53333 h -4.8 q -4.13333,0 -6.8,-0.8 -2.53333,-0.93333 -4.13333,-2.53333 -1.46667,-1.6 -2.13334,-3.86667 -0.53333,-2.4 -0.53333,-5.46667 0,-2 0.13333,-5.6 0.26667,-3.73333 0.8,-10.13333 0.53334,-6.53333 1.2,-16.4 0.8,-10 1.86667,-24.66666 0.13333,-2.93334 0.66667,-3.46667 0.4,-0.4 2.13333,-0.4 h 5.2 q 4,0 6.53333,0.93333 2.66667,0.93334 4.26667,2.53334 1.6,1.46666 2.26667,3.6 0.66666,1.99999 0.8,4.13333 4.13333,-7.06667 9.46666,-9.73333 5.33334,-2.8 13.33334,-2.8 5.6,0 9.73333,1.2 4.13333,1.2 6.8,4.13333 2.8,2.8 4.13333,7.46666 1.33333,4.53334 1.33333,11.33334 0,2.13333 -0.26666,6.13333 -0.26667,4 -0.66667,8.8 -0.4,4.66667 -0.93333,9.86667 -0.4,5.06666 -0.8,9.46666 -0.4,4.4 -0.66667,7.73334 -0.26667,3.33333 -0.26667,4.4 0,2.93333 -0.66666,3.6 -0.66667,0.53333 -2.93333,0.53333 h -4.26667 q -4.26667,0 -6.93333,-0.8 -2.66667,-0.8 -4.13334,-2.26667 -1.46666,-1.46666 -2.13333,-3.6 -0.53333,-2.26666 -0.53333,-5.06666 z" />
        <path
           inkscape:connector-curvature="0"
           id="path3964"
           style="font-style:normal;font-variant:normal;font-weight:normal;font-stretch:normal;font-size:133.33332825px;font-family:'Poetsen One';-inkscape-font-specification:'Poetsen One, Normal';font-variant-ligatures:normal;font-variant-caps:normal;font-variant-numeric:normal;font-feature-settings:normal;text-align:start;writing-mode:lr-tb;text-anchor:start;fill:#2b2200;fill-opacity:1;stroke:#000009;stroke-width:1.003003;stroke-linejoin:round;stroke-miterlimit:4;stroke-dasharray:none;stroke-opacity:1"
           d="m 367.80064,527.57335 q -0.4,5.06666 -0.93333,10 -0.4,4.93333 -0.8,9.33333 -0.4,4.4 -0.66667,7.86667 -0.13333,3.46666 -0.13333,5.33333 0,3.46667 0.8,4.66667 0.8,1.06666 2.66667,1.06666 1.46666,0 2.53333,-0.53333 1.06667,-0.53333 2,-1.2 0.93333,-0.66667 1.6,-1.2 0.8,-0.53333 1.73333,-0.53333 0.93334,0 1.73334,1.06666 0.8,1.06667 0.8,4.93334 0,7.33333 -4,11.6 -4,4.26666 -13.73334,4.26666 -9.59999,0 -14.26666,-4.4 -4.53333,-4.53333 -4.53333,-13.73333 0,-2 0.13333,-4.66667 0.26667,-2.8 0.66667,-7.2 0.4,-4.4 0.93333,-10.8 0.66667,-6.4 1.33333,-15.86666 h -7.06666 q -1.06667,0 -1.33334,-0.4 -0.13333,-0.53334 -0.13333,-1.46667 l 0.4,-6.8 q 0.13333,-1.73333 0.4,-3.33333 0.4,-1.73333 1.33333,-3.06667 1.06667,-1.33333 2.93334,-2.13333 1.86666,-0.8 4.93333,-0.8 0.93333,-2.4 2.13333,-5.73333 1.2,-3.33334 2.4,-6.4 1.2,-3.2 2.26667,-5.33334 1.2,-2.13333 2.13333,-2.13333 h 3.86667 q 5.6,0 7.73333,3.46667 2.13333,3.46666 2.13333,8.26666 0,2.66667 -0.4,7.86667 h 14 q 2.13334,0 2.13334,1.86667 l -0.53334,7.19999 q -0.26666,4 -2.26666,6.53334 -1.86667,2.4 -7.86667,2.4 z" />
        <path
           inkscape:connector-curvature="0"
           id="path3966"
           style="font-style:normal;font-variant:normal;font-weight:normal;font-stretch:normal;font-size:133.33332825px;font-family:'Poetsen One';-inkscape-font-specification:'Poetsen One, Normal';font-variant-ligatures:normal;font-variant-caps:normal;font-variant-numeric:normal;font-feature-settings:normal;text-align:start;writing-mode:lr-tb;text-anchor:start;fill:#2b2200;fill-opacity:1;stroke:#000009;stroke-width:1.003003;stroke-linejoin:round;stroke-miterlimit:4;stroke-dasharray:none;stroke-opacity:1"
           d="m 435.32564,541.44001 q -0.8,0 -1.86666,0 -0.93334,-0.13333 -1.86667,-0.26666 -0.93333,-0.26667 -1.6,-0.53334 -0.66667,-0.4 -0.66667,-0.93333 0,-1.73333 0.13334,-3.2 0.13333,-1.46667 0.13333,-3.06667 0,-2.93333 -0.8,-4.8 -0.8,-1.86666 -3.2,-1.86666 -3.73333,0 -6.26667,4.93333 -2.4,4.8 -3.06666,14.53333 -0.26667,4.26667 -0.8,9.73334 -0.4,5.33333 -0.8,10.4 -0.4,4.93333 -0.66667,8.8 -0.26667,3.86666 -0.26667,5.06666 0,1.33334 -0.93333,2 -0.93333,0.66667 -2,0.66667 h -4.8 q -4.13333,0 -6.8,-0.8 -2.53333,-0.93333 -4.13333,-2.53333 -1.46667,-1.6 -2.13333,-3.86667 -0.53334,-2.4 -0.53334,-5.46667 0,-2 0.13334,-5.6 0.26666,-3.73333 0.8,-10.13333 0.53333,-6.53333 1.2,-16.4 0.8,-10 1.86666,-24.66666 0.26667,-3.86667 2.8,-3.86667 h 5.2 q 3.73334,0 6.26667,0.8 2.53333,0.8 4.13333,2.26667 1.6,1.33333 2.26667,3.2 0.8,1.86666 1.06666,3.86666 1.6,-3.06666 3.73334,-5.2 2.26666,-2.26666 4.66666,-3.6 2.4,-1.46666 4.93334,-2 2.53333,-0.66666 4.66666,-0.66666 2.53334,0 5.06667,0.93333 2.66667,0.93333 4.8,2.8 2.13333,1.86667 3.33333,4.8 1.33334,2.93333 1.33334,6.93333 0,3.6 -1.06667,6.8 -1.06667,3.2 -3.06667,5.73333 -2,2.4 -4.93333,3.86667 -2.8,1.33333 -6.26667,1.33333 z" />
        <path
           inkscape:connector-curvature="0"
           id="path3968"
           style="font-style:normal;font-variant:normal;font-weight:normal;font-stretch:normal;font-size:133.33332825px;font-family:'Poetsen One';-inkscape-font-specification:'Poetsen One, Normal';font-variant-ligatures:normal;font-variant-caps:normal;font-variant-numeric:normal;font-feature-settings:normal;text-align:start;writing-mode:lr-tb;text-anchor:start;fill:#2b2200;fill-opacity:1;stroke:#000009;stroke-width:1.003003;stroke-linejoin:round;stroke-miterlimit:4;stroke-dasharray:none;stroke-opacity:1"
           d="m 469.79439,582.90668 q -4.13333,0 -6.8,-0.8 -2.53333,-0.93333 -4.13333,-2.53333 -1.46667,-1.6 -2.13334,-3.86667 -0.53333,-2.4 -0.53333,-5.46667 0,-2 0.13333,-5.6 0.26667,-3.73333 0.8,-10.13333 0.53334,-6.53333 1.2,-16.4 0.8,-10 1.86667,-24.66666 0.13333,-2.93334 0.66667,-3.46667 0.4,-0.4 2.13333,-0.4 h 5.2 q 4.13333,0 6.66667,0.8 2.66666,0.8 4.13333,2.4 1.6,1.6 2.13333,3.86667 0.66667,2.26666 0.66667,5.06666 0,2 -0.26667,6 -0.26666,4 -0.8,10.93333 -0.4,6.8 -1.2,17.06667 -0.8,10.13333 -2,24.53333 -0.13333,1.6 -0.66666,2.13334 -0.53334,0.53333 -2.26667,0.53333 z m -9.46667,-89.06666 q 0,-5.33334 3.86667,-8.4 3.86667,-3.06667 10.4,-3.06667 5.73333,0 8.26667,2.4 2.66666,2.26667 2.66666,6.13333 0,4.93334 -3.73333,8.26667 -3.6,3.2 -10.66667,3.2 -10.8,0 -10.8,-8.53333 z" />
        <path
           inkscape:connector-curvature="0"
           id="path3970"
           style="font-style:normal;font-variant:normal;font-weight:normal;font-stretch:normal;font-size:133.33332825px;font-family:'Poetsen One';-inkscape-font-specification:'Poetsen One, Normal';font-variant-ligatures:normal;font-variant-caps:normal;font-variant-numeric:normal;font-feature-settings:normal;text-align:start;writing-mode:lr-tb;text-anchor:start;fill:#2b2200;fill-opacity:1;stroke:#000009;stroke-width:1.003003;stroke-linejoin:round;stroke-miterlimit:4;stroke-dasharray:none;stroke-opacity:1"
           d="m 524.09439,584.24001 q -10.26667,0 -16.26667,-2.93333 -6,-3.06667 -9.06666,-7.6 -3.06667,-4.53333 -3.86667,-9.73333 -0.8,-5.33334 -0.8,-9.73334 0,-1.73333 0.26667,-6.8 0.4,-5.06666 0.93333,-11.73333 0.53333,-6.66667 1.06667,-14.13333 0.53333,-7.6 1.06666,-14.26667 0.53334,-6.8 0.8,-12 0.4,-5.2 0.4,-7.2 0,-2.93333 0.4,-3.33333 0.4,-0.53333 2.4,-0.53333 h 5.2 q 4,0 6.66667,0.93333 2.66667,0.93333 4.26667,2.53333 1.6,1.6 2.26666,3.73334 0.66667,2 0.66667,4.4 0,2.26666 -0.53333,8.8 -0.4,6.53333 -1.06667,15.33333 3.46667,-6 7.86667,-8.8 4.4,-2.93333 11.6,-2.93333 12.13333,0 18.53333,8 6.53333,7.99999 6.53333,23.86666 0,4.13333 -0.66667,9.06667 -0.53333,4.93333 -2.13333,9.86666 -1.46667,4.8 -4.26667,9.46667 -2.66666,4.53333 -7.06666,8 -4.4,3.46667 -10.66667,5.6 -6.13333,2.13333 -14.53333,2.13333 z m 6,-58.26666 q -4.8,0 -7.6,2.53333 -2.66667,2.53333 -4.13333,6.13333 -1.46667,3.6 -1.86667,7.73334 -0.4,4 -0.4,7.06666 0,9.2 2.53333,13.2 2.53334,3.86667 7.6,3.86667 4.8,0 7.46667,-2.93333 2.8,-3.06667 4.13333,-7.2 1.46667,-4.13334 1.86667,-8.4 0.4,-4.26667 0.4,-6.66667 0,-7.46667 -2.26667,-11.33333 -2.26666,-4 -7.73333,-4 z" />
        <path
           inkscape:connector-curvature="0"
           id="path3972"
           style="font-style:normal;font-variant:normal;font-weight:normal;font-stretch:normal;font-size:133.33332825px;font-family:'Poetsen One';-inkscape-font-specification:'Poetsen One, Normal';font-variant-ligatures:normal;font-variant-caps:normal;font-variant-numeric:normal;font-feature-settings:normal;text-align:start;writing-mode:lr-tb;text-anchor:start;fill:#2b2200;fill-opacity:1;stroke:#000009;stroke-width:1.003003;stroke-linejoin:round;stroke-miterlimit:4;stroke-dasharray:none;stroke-opacity:1"
           d="m 598.97563,520.90668 q 0,2.8 -0.53333,7.86667 -0.4,5.06666 -0.93334,10.53333 -0.4,5.46667 -0.93333,10.26667 -0.4,4.8 -0.4,6.93333 0,4.66667 2.26667,7.33333 2.4,2.53334 6.53333,2.53334 3.6,0 6,-2.8 2.53333,-2.93334 4,-7.46667 1.6,-4.66667 2.53333,-10.53333 0.93334,-5.86667 1.33334,-11.86667 0.53333,-6 0.8,-11.6 0.4,-5.73333 0.8,-9.86666 0.13333,-1.06667 0.8,-1.86667 0.66666,-0.8 2.13333,-0.8 h 4.8 q 4.13333,0 6.66666,0.93333 2.66667,0.8 4.13334,2.4 1.6,1.6 2.13333,4 0.66667,2.26667 0.66667,5.33333 0,2 -0.26667,5.73334 -0.13333,3.6 -0.66667,10.13333 -0.53333,6.4 -1.33333,16.4 -0.66667,9.86667 -1.73333,24.53333 -0.26667,2.8 -0.66667,3.33334 -0.26667,0.53333 -2.13333,0.53333 h -5.2 q -4,0 -6.66667,-0.93333 -2.53333,-0.93334 -4.13333,-2.4 -1.6,-1.46667 -2.26667,-3.46667 -0.66666,-2 -0.8,-4.13333 -2,3.46666 -4.53333,5.86666 -2.4,2.4 -5.06667,3.86667 -2.66666,1.33333 -5.46666,1.86667 -2.8,0.66666 -5.46667,0.66666 -5.06667,0 -9.06667,-1.6 -4,-1.73333 -6.8,-4.53333 -2.66666,-2.8 -4.13333,-6.66667 -1.46667,-3.86666 -1.46667,-8.26666 0,-1.73334 0.13334,-5.6 0.26666,-4 0.53333,-8.93334 0.4,-4.93333 0.8,-10.4 0.4,-5.6 0.66667,-10.53333 0.4,-4.93333 0.66666,-8.66667 0.4,-3.73333 0.53334,-5.33333 0.26666,-2.4 1.06666,-3.2 0.8,-0.93333 2.66667,-0.93333 h 4.26667 q 4.13333,0 6.8,0.8 2.66666,0.8 4.13333,2.26667 1.6,1.46666 2.13333,3.6 0.66667,1.99999 0.66667,4.66666 z" />
        <path
           inkscape:connector-curvature="0"
           id="path3974"
           style="font-style:normal;font-variant:normal;font-weight:normal;font-stretch:normal;font-size:133.33332825px;font-family:'Poetsen One';-inkscape-font-specification:'Poetsen One, Normal';font-variant-ligatures:normal;font-variant-caps:normal;font-variant-numeric:normal;font-feature-settings:normal;text-align:start;writing-mode:lr-tb;text-anchor:start;fill:#2b2200;fill-opacity:1;stroke:#000009;stroke-width:1.003003;stroke-linejoin:round;stroke-miterlimit:4;stroke-dasharray:none;stroke-opacity:1"
           d="m 667.19023,582.90668 q -4.13333,0 -6.8,-0.8 -2.53333,-0.93333 -4.13333,-2.53333 -1.46667,-1.6 -2.13333,-3.86667 -0.53334,-2.4 -0.53334,-5.46667 0,-2 0.13334,-5.6 0.26666,-3.73333 0.8,-10.13333 0.53333,-6.53333 1.2,-16.4 0.8,-10 1.86666,-24.66666 0.13334,-2.93334 0.66667,-3.46667 0.4,-0.4 2.13333,-0.4 h 5.2 q 4.13334,0 6.66667,0.8 2.66667,0.8 4.13333,2.4 1.6,1.6 2.13334,3.86667 0.66666,2.26666 0.66666,5.06666 0,2 -0.26666,6 -0.26667,4 -0.8,10.93333 -0.4,6.8 -1.2,17.06667 -0.8,10.13333 -2,24.53333 -0.13334,1.6 -0.66667,2.13334 -0.53333,0.53333 -2.26667,0.53333 z m -9.46666,-89.06666 q 0,-5.33334 3.86666,-8.4 3.86667,-3.06667 10.4,-3.06667 5.73334,0 8.26667,2.4 2.66667,2.26667 2.66667,6.13333 0,4.93334 -3.73334,8.26667 -3.6,3.2 -10.66666,3.2 -10.8,0 -10.8,-8.53333 z" />
      </g>
    </g>
  </g>
</svg>
